<mxfile host="app.diagrams.net" modified="2022-04-13T07:28:36.670Z" agent="5.0 (X11)" etag="8915tcU2Qy-LtBpxI1kn" version="17.4.3" type="github">
  <diagram id="MInBh1SqWbQjp1WLOZTz" name="Page-1">
    <mxGraphModel dx="1422" dy="753" grid="1" gridSize="10" guides="1" tooltips="1" connect="1" arrows="1" fold="1" page="1" pageScale="1" pageWidth="1169" pageHeight="827" math="0" shadow="0">
      <root>
        <mxCell id="0" />
        <mxCell id="1" parent="0" />
        <mxCell id="lajUPEfwQLAzJnHiFyT6-13" value="" style="endArrow=classic;html=1;rounded=0;strokeColor=#000000;exitX=1;exitY=0.5;exitDx=0;exitDy=0;entryX=0.007;entryY=-0.038;entryDx=0;entryDy=0;entryPerimeter=0;" parent="1" source="lajUPEfwQLAzJnHiFyT6-15" target="lajUPEfwQLAzJnHiFyT6-5" edge="1">
          <mxGeometry width="50" height="50" relative="1" as="geometry">
            <mxPoint x="160" y="39" as="sourcePoint" />
            <mxPoint x="440" y="30" as="targetPoint" />
          </mxGeometry>
        </mxCell>
        <mxCell id="lajUPEfwQLAzJnHiFyT6-26" value="" style="group" parent="1" vertex="1" connectable="0">
          <mxGeometry x="490" y="110" width="470" height="160" as="geometry" />
        </mxCell>
        <mxCell id="lajUPEfwQLAzJnHiFyT6-4" value="Façade.java" style="swimlane;fontStyle=1;align=center;verticalAlign=top;childLayout=stackLayout;horizontal=1;startSize=26;horizontalStack=0;resizeParent=1;resizeParentMax=0;resizeLast=0;collapsible=1;marginBottom=0;" parent="lajUPEfwQLAzJnHiFyT6-26" vertex="1">
          <mxGeometry width="280" height="86" as="geometry" />
        </mxCell>
        <mxCell id="lajUPEfwQLAzJnHiFyT6-5" value="+ field: type" style="text;strokeColor=none;fillColor=none;align=left;verticalAlign=top;spacingLeft=4;spacingRight=4;overflow=hidden;rotatable=0;points=[[0,0.5],[1,0.5]];portConstraint=eastwest;" parent="lajUPEfwQLAzJnHiFyT6-4" vertex="1">
          <mxGeometry y="26" width="280" height="26" as="geometry" />
        </mxCell>
        <mxCell id="lajUPEfwQLAzJnHiFyT6-6" value="" style="line;strokeWidth=1;fillColor=none;align=left;verticalAlign=middle;spacingTop=-1;spacingLeft=3;spacingRight=3;rotatable=0;labelPosition=right;points=[];portConstraint=eastwest;" parent="lajUPEfwQLAzJnHiFyT6-4" vertex="1">
          <mxGeometry y="52" width="280" height="8" as="geometry" />
        </mxCell>
        <mxCell id="lajUPEfwQLAzJnHiFyT6-7" value="+ method(type): type" style="text;strokeColor=none;fillColor=none;align=left;verticalAlign=top;spacingLeft=4;spacingRight=4;overflow=hidden;rotatable=0;points=[[0,0.5],[1,0.5]];portConstraint=eastwest;" parent="lajUPEfwQLAzJnHiFyT6-4" vertex="1">
          <mxGeometry y="60" width="280" height="26" as="geometry" />
        </mxCell>
        <mxCell id="lajUPEfwQLAzJnHiFyT6-25" value="" style="group" parent="lajUPEfwQLAzJnHiFyT6-26" vertex="1" connectable="0">
          <mxGeometry x="350" y="100" width="120" height="60" as="geometry" />
        </mxCell>
        <mxCell id="lajUPEfwQLAzJnHiFyT6-2" value="&lt;div&gt;Classes de la DB Entity Beans&lt;br&gt;&lt;/div&gt;" style="rounded=0;whiteSpace=wrap;html=1;" parent="lajUPEfwQLAzJnHiFyT6-25" vertex="1">
          <mxGeometry x="-9" width="120" height="60" as="geometry" />
        </mxCell>
        <mxCell id="lajUPEfwQLAzJnHiFyT6-1" value="" style="endArrow=classic;html=1;rounded=0;strokeColor=#000000;exitX=1;exitY=1;exitDx=0;exitDy=0;entryX=0;entryY=0;entryDx=0;entryDy=0;" parent="lajUPEfwQLAzJnHiFyT6-26" source="lajUPEfwQLAzJnHiFyT6-4" target="lajUPEfwQLAzJnHiFyT6-2" edge="1">
          <mxGeometry width="50" height="50" relative="1" as="geometry">
            <mxPoint x="-50" y="112" as="sourcePoint" />
            <mxPoint y="62" as="targetPoint" />
          </mxGeometry>
        </mxCell>
        <mxCell id="lajUPEfwQLAzJnHiFyT6-36" value="" style="group" parent="1" vertex="1" connectable="0">
          <mxGeometry x="120" y="110" width="200" height="362" as="geometry" />
        </mxCell>
        <mxCell id="lajUPEfwQLAzJnHiFyT6-24" value="" style="group" parent="lajUPEfwQLAzJnHiFyT6-36" vertex="1" connectable="0">
          <mxGeometry x="10" y="-10" width="200" height="150" as="geometry" />
        </mxCell>
        <mxCell id="lajUPEfwQLAzJnHiFyT6-14" value="Servlet.java" style="swimlane;fontStyle=1;align=center;verticalAlign=top;childLayout=stackLayout;horizontal=1;startSize=26;horizontalStack=0;resizeParent=1;resizeParentMax=0;resizeLast=0;collapsible=1;marginBottom=0;" parent="lajUPEfwQLAzJnHiFyT6-24" vertex="1">
          <mxGeometry width="200" height="150" as="geometry" />
        </mxCell>
        <mxCell id="lajUPEfwQLAzJnHiFyT6-15" value="+ field: type" style="text;strokeColor=none;fillColor=none;align=left;verticalAlign=top;spacingLeft=4;spacingRight=4;overflow=hidden;rotatable=0;points=[[0,0.5],[1,0.5]];portConstraint=eastwest;" parent="lajUPEfwQLAzJnHiFyT6-14" vertex="1">
          <mxGeometry y="26" width="200" height="26" as="geometry" />
        </mxCell>
        <mxCell id="lajUPEfwQLAzJnHiFyT6-16" value="" style="line;strokeWidth=1;fillColor=none;align=left;verticalAlign=middle;spacingTop=-1;spacingLeft=3;spacingRight=3;rotatable=0;labelPosition=right;points=[];portConstraint=eastwest;" parent="lajUPEfwQLAzJnHiFyT6-14" vertex="1">
          <mxGeometry y="52" width="200" height="8" as="geometry" />
        </mxCell>
        <mxCell id="lajUPEfwQLAzJnHiFyT6-17" value="+ method(type): type" style="text;strokeColor=none;fillColor=none;align=left;verticalAlign=top;spacingLeft=4;spacingRight=4;overflow=hidden;rotatable=0;points=[[0,0.5],[1,0.5]];portConstraint=eastwest;" parent="lajUPEfwQLAzJnHiFyT6-14" vertex="1">
          <mxGeometry y="60" width="200" height="90" as="geometry" />
        </mxCell>
        <mxCell id="lajUPEfwQLAzJnHiFyT6-35" value="" style="group" parent="lajUPEfwQLAzJnHiFyT6-36" vertex="1" connectable="0">
          <mxGeometry y="270" width="160" height="86" as="geometry" />
        </mxCell>
        <mxCell id="lajUPEfwQLAzJnHiFyT6-27" value="" style="endArrow=classic;html=1;rounded=0;strokeColor=#000000;exitX=0.372;exitY=1.022;exitDx=0;exitDy=0;exitPerimeter=0;" parent="lajUPEfwQLAzJnHiFyT6-35" source="lajUPEfwQLAzJnHiFyT6-17" edge="1">
          <mxGeometry width="50" height="50" relative="1" as="geometry">
            <mxPoint x="420" y="44" as="sourcePoint" />
            <mxPoint x="70" as="targetPoint" />
          </mxGeometry>
        </mxCell>
        <mxCell id="lajUPEfwQLAzJnHiFyT6-31" value="index.html" style="swimlane;fontStyle=1;align=center;verticalAlign=top;childLayout=stackLayout;horizontal=1;startSize=26;horizontalStack=0;resizeParent=1;resizeParentMax=0;resizeLast=0;collapsible=1;marginBottom=0;" parent="lajUPEfwQLAzJnHiFyT6-35" vertex="1">
          <mxGeometry width="160" height="86" as="geometry" />
        </mxCell>
        <mxCell id="lajUPEfwQLAzJnHiFyT6-32" value="+ field: type" style="text;strokeColor=none;fillColor=none;align=left;verticalAlign=top;spacingLeft=4;spacingRight=4;overflow=hidden;rotatable=0;points=[[0,0.5],[1,0.5]];portConstraint=eastwest;" parent="lajUPEfwQLAzJnHiFyT6-31" vertex="1">
          <mxGeometry y="26" width="160" height="26" as="geometry" />
        </mxCell>
        <mxCell id="lajUPEfwQLAzJnHiFyT6-33" value="" style="line;strokeWidth=1;fillColor=none;align=left;verticalAlign=middle;spacingTop=-1;spacingLeft=3;spacingRight=3;rotatable=0;labelPosition=right;points=[];portConstraint=eastwest;" parent="lajUPEfwQLAzJnHiFyT6-31" vertex="1">
          <mxGeometry y="52" width="160" height="8" as="geometry" />
        </mxCell>
        <mxCell id="lajUPEfwQLAzJnHiFyT6-34" value="+ method(type): type" style="text;strokeColor=none;fillColor=none;align=left;verticalAlign=top;spacingLeft=4;spacingRight=4;overflow=hidden;rotatable=0;points=[[0,0.5],[1,0.5]];portConstraint=eastwest;" parent="lajUPEfwQLAzJnHiFyT6-31" vertex="1">
          <mxGeometry y="60" width="160" height="26" as="geometry" />
        </mxCell>
        <mxCell id="lB8m8ho_ZpuSB8js8KdT-1" value="" style="endArrow=classic;html=1;rounded=0;exitX=1;exitY=0.5;exitDx=0;exitDy=0;" edge="1" parent="1" source="lajUPEfwQLAzJnHiFyT6-2" target="lB8m8ho_ZpuSB8js8KdT-2">
          <mxGeometry width="50" height="50" relative="1" as="geometry">
            <mxPoint x="530" y="410" as="sourcePoint" />
            <mxPoint x="1030" y="240" as="targetPoint" />
          </mxGeometry>
        </mxCell>
        <mxCell id="lB8m8ho_ZpuSB8js8KdT-2" value="DataBase" style="rounded=0;whiteSpace=wrap;html=1;" vertex="1" parent="1">
          <mxGeometry x="970" y="210" width="120" height="60" as="geometry" />
        </mxCell>
        <mxCell id="lB8m8ho_ZpuSB8js8KdT-3" value="Modèle MVC =&amp;gt; Modèle Ajax (React)" style="rounded=0;whiteSpace=wrap;html=1;" vertex="1" parent="1">
          <mxGeometry x="500" y="360" width="350" height="130" as="geometry" />
        </mxCell>
      </root>
    </mxGraphModel>
  </diagram>
</mxfile>
